# xmcd CD database file
#
# Track frame offsets:
#	150
#	22425
#	39600
#
# Disc length: 822 seconds
#
# Revision: 0
# Processed by: cddbd v1.5.1PL2 Copyright (c) Steve Scherf et al.
# Submitted via: CDex 1.51
#
DISCID=25033403
DTITLE=東野純直 - これは愛だ
DYEAR=1996
DGENRE=J-pop
TTITLE0=これは愛だ
TTITLE1=8月のカレンダー
TTITLE2=これは愛だ(オリジナルカラオケ)
EXTD=YEAR: 1996
EXTT0=
EXTT1=
EXTT2=
PLAYORDER=
